# xmcd CD database file
#
# Track frame offsets:
#	150
#	19820
#	33098
#	54881
#	76165
#	105679
#	122512
#	142752
#	155248
#	185749
#
# Disc length: 2704 seconds
#
# Revision: 0
# Processed by: cddbd v1.4PL0 Copyright (c) Steve Scherf et al.
# Submitted via: CDex 1.50beta10
#
DISCID=750a8e0a
DTITLE=Taboo Blue - Taboo Blue
DYEAR=1995
DGENRE=Blues
TTITLE0=Soul Food
TTITLE1=Panty Hose
TTITLE2=Itsina (Intro) Yardlight
TTITLE3=Wrapped Up Tight
TTITLE4=Seagram Seven
TTITLE5=Buddwa Mammbo
TTITLE6=Taboo Blues
TTITLE7=Goods for the Gig
TTITLE8=Imitation Blues
TTITLE9=Lights of Cokato
EXTD=YEAR: 1995
EXTT0=
EXTT1=
EXTT2=
EXTT3=
EXTT4=
EXTT5=
EXTT6=
EXTT7=
EXTT8=
EXTT9=
PLAYORDER=
